<svg class="rise-logo" version="1.1" id="Layer_1" xmlns="http://www.w3.org/2000/svg" xmlns:xlink="http://www.w3.org/1999/xlink" x="0px" y="0px"
	 viewBox="0 0 289.3 90.8" enable-background="new 0 0 289.3 90.8" xml:space="preserve">
<g>
	<!-- R -->
	<path class="rise-text" fill="#EE2738" d="M0,20.7c0,21.8,0,43.6,0,65.5c0,0.4,0,0.7,0,1.1c0,0.7,0,1.5,0,2.3c7.2,0,14.3,0,21.5,0c0-3,0-6.1,0-9.1
		c0-6.1,0-12.1,0-18.2c0.2,0,0.3,0,0.5,0c3.9,0,7.9,0,11.8,0c0.4,0,0.5,0.2,0.7,0.4c2.7,4,5.4,8.1,8.1,12.1c1,1.5,2,2.9,3,4.4
		c1.7,2.5,3.4,5,5,7.5c0.4,0.7,0.9,1.3,1.3,2c0.5,0.7,1,1,1.9,1c7.3,0,14.6,0,21.9,0c0.8,0,1.6,0,2.5,0c-1.5-2.2-3.1-4.5-4.6-6.7
		c-3.2-4.7-6.4-9.3-9.5-13.9c-2.4-3.5-4.8-7.1-7.3-10.6c0.1-0.1,0.2-0.1,0.3-0.1c3.9-1.7,7.3-4.2,10.3-7.3c3-3.1,5-6.8,6-11
		c0.9-3.5,1-7.1,0.9-10.6c-0.1-2.8-0.4-5.6-1.2-8.3c-2.4-8-7.8-13.4-15.3-16.8c-4.9-2.2-10.2-3-15.6-3c-12.4,0-24.9,0-37.3,0
		c-1.5,0-2.9,0-4.4-0.1C0.1,1.1,0,1.2,0,1.6C0,2.8,0,4,0,5.2C0,10.4,0,15.6,0,20.7z M20,88H1.5v-0.6l18.4-5V88z M69.2,79.2l1.7,2.5
		l-19.6,3.2l-3.4-5.1l-1.1-1.6L45.4,76l-0.3-0.4l18.3-4.9L69.2,79.2z M18.8,18.2c0.7,0,1.5,0,2.3,0c6.2,0,12.4,0,18.6,0
		c2.5,0,5,0.3,7.4,1.2c3.8,1.5,6.7,4,7.7,8.2c0.8,3.3,0.9,6.8-0.5,10c-1.8,4-4.9,6.4-9.1,7.4c-1.8,0.4-3.7,0.6-5.5,0.5
		c-4.6,0-9.1,0-13.7,0c-2.1,0-4.2,0-6.4,0.1c-0.2,0-0.4,0-0.7,0C18.8,36.5,18.8,27.4,18.8,18.2z"/>

	<!-- I -->
	<path class="rise-text" fill="#EE2738" d="M115.3,76.1c0-7,0-14,0-21c0-18,0-35.9,0-53.9c-7.2,0-14.2,0-21.4,0c0,19.9,0,39.8,0,59.7
		c0,6.2,0,12.5,0,18.7c0,3.3,0,6.6,0,9.9c7.2,0,14.3,0,21.4,0C115.3,85,115.3,80.6,115.3,76.1z M95.5,77.8V62l18.3-4.9v17.7
		L95.5,77.8z"/>

	<!-- S -->
	<path class="rise-text" fill="#EE2738" d="M163.8,90.4c1.1,0.1,2.2,0.2,3.4,0.3c2.1,0,4.1,0,6.2,0c0.2,0,0.3-0.1,0.5-0.1c1.7-0.2,3.4-0.3,5.1-0.6
		c4.4-0.7,8.6-2.1,12.3-4.6c5.9-3.9,9.9-9.1,11.3-16.1c0.5-2.5,0.6-5,0.6-7.5c0-1.2-0.1-2.3-0.2-3.5c-0.3-3.2-1.3-6.2-3.2-8.9
		c-2.5-3.6-5.7-6.3-9.5-8.3c-2.9-1.6-6-2.8-9.2-3.8c-0.3-0.1-0.7-0.2-1-0.3c-4.3-1.3-8.6-2.4-12.9-3.7c-2.4-0.7-4.8-1.5-6.9-2.7
		c-1.8-1-2.6-2.6-2.8-4.5c-0.2-2.2,1.1-4.4,3.3-5.5c2.2-1.1,4.6-1.4,7-1.3c2.3,0.1,4.6,0.5,6.9,1.2c4.9,1.6,9.3,4,13.6,6.8
		c0.5,0.3,1,0.7,1.6,1.1c3.8-5.5,7.6-11,11.5-16.6c-1.8-1.3-3.5-2.7-5.4-3.9c-6.6-4.3-13.9-6.9-21.8-7.7c-1.1-0.1-2.3-0.2-3.4-0.3
		c-2.1,0-4.1,0-6.2,0c-0.1,0-0.3,0.1-0.4,0.1c-1.6,0.2-3.2,0.3-4.7,0.6c-6.4,1.2-11.9,3.8-16.4,8.6c-3.8,4-6,8.6-6.6,14.1
		c-0.3,2.8-0.3,5.7,0,8.5c0.3,3,1.1,5.8,2.7,8.4c1.6,2.7,3.8,5,6.3,6.8c0.9,0.6,1.8,1.2,2.8,1.8c3.6,2,7.4,3.3,11.3,4.4
		c3.9,1.1,7.8,2.1,11.8,3.2c2.7,0.8,5.4,1.7,7.8,3.2c0.6,0.3,1.1,0.7,1.6,1.2c1,1.2,1.4,2.9,1.2,4.4c-0.2,1.5-1,2.9-2.2,3.8
		c-2.1,1.5-4.4,2-6.9,2.2c-4.1,0.3-8-0.2-11.9-1.5c-0.7-0.2-1.3-0.5-2-0.7c-4.7-1.9-8.9-4.6-12.8-7.8c-0.3-0.3-0.6-0.5-1.1-0.9
		c-3.6,4.2-7.1,8.5-10.7,12.7c-0.8,0.9-1.6,1.9-2.4,2.8c1,0.9,2,1.8,3.1,2.7C143.4,85.5,153.1,89.3,163.8,90.4z M181.6,59.9
		c-0.6-0.7-1.3-1.1-1.9-1.5c-2.2-1.4-4.8-2.4-8.2-3.4c-1.9-0.5-3.8-1.1-5.7-1.6c-2-0.5-4-1.1-6-1.7c-3.5-1-7.3-2.2-10.8-4.2l32-8.6
		c3.3,1,6.1,2.2,8.5,3.5c3.9,2.1,6.8,4.6,9,7.8c1.6,2.3,2.6,5.1,2.9,8.2c0.1,0.7,0.1,1.4,0.2,2.1l-18.4,3
		C183,62.2,182.5,60.9,181.6,59.9z M138.7,70.1l6.4-7.6c2.9,2.4,5.7,4.3,8.6,5.8l-15.6,2.5L138.7,70.1z"/>

	<!-- E -->
	<path class="rise-text" fill="#EE2738" d="M289.3,70.2c-0.4,0-0.9,0-1.3,0c-14.9,0-29.8,0-44.6,0c-0.2,0-0.4,0-0.7,0c0-4.9,0-9.8,0-14.7l4.3-0.7
		c12,0,24.1,0,36.1,0c0-2,0-3.9,0-5.9c0-4.5,0-9,0-13.5c-13.5,0-26.9,0-40.4,0c0-4.9,0-9.7,0-14.6l0.8-0.2c15.1,0,30.1,0,45.1,0
		c0-4.1,0-8.1,0-12.2c0-2.4,0-4.8,0-7.2c-22.5,0-44.9,0-67.3,0c0,8.4,0,16.9,0,25.3c0,10.8,0,21.6,0,32.4c0,10.2,0,20.4,0,30.7
		c22.7,0,45.3,0,68,0C289.3,83.1,289.3,76.6,289.3,70.2z M287.1,19h-32l32-8.6V19z M281.5,36.9v10.7l-34.7,5.6l-5.7,0.9l-18.3,3
		V27.7l18.3-4.9v12.6v1.5h1.5H281.5z"/>
</g>
</svg>
